<svg width="659" height="576" viewBox="0 0 659 576" fill="none" xmlns="http://www.w3.org/2000/svg">
<path d="M233.448 272.822H297.062V575.998H233.448V272.822Z" fill="#080D15"/>
<mask id="mask0_1924_16313" style="mask-type:luminance" maskUnits="userSpaceOnUse" x="0" y="0" width="516" height="323">
<path d="M0.56012 0.771973H515.623V322.346H0.56012V0.771973Z" fill="white"/>
</mask>
<g mask="url(#mask0_1924_16313)">
<path d="M0.651227 17.0129C0.651227 8.04342 7.92266 0.771973 16.8921 0.771973H498.727C507.697 0.771973 514.968 8.04342 514.968 17.0129V305.302C514.968 314.271 507.697 321.546 498.727 321.546H16.8921C7.92266 321.546 0.651227 314.271 0.651227 305.302V17.0129Z" fill="#080D15"/>
</g>
<path d="M14.1846 18.3663C14.1846 16.1248 16.0041 14.3086 18.2456 14.3086H497.373C499.615 14.3086 501.434 16.1248 501.434 18.3663V302.594C501.434 304.839 499.615 306.655 497.373 306.655H18.2456C16.0041 306.655 14.1846 304.839 14.1846 302.594V18.3663Z" fill="#FFF3B2"/>
<path d="M202.317 60.0869C202.317 57.8454 204.137 56.0259 206.378 56.0259H256.934C259.175 56.0259 260.995 57.8454 260.995 60.0869V110.639C260.995 112.884 259.175 114.7 256.934 114.7H206.378C204.137 114.7 202.317 112.884 202.317 110.639V60.0869Z" fill="#FFD701"/>
<path fill-rule="evenodd" clip-rule="evenodd" d="M214.21 83.5047C215.266 82.4481 216.981 82.4481 218.038 83.5047L226.498 91.9645L248.798 69.6606C249.855 68.604 251.569 68.604 252.626 69.6606C253.683 70.7206 253.683 72.4322 252.626 73.4888L226.498 99.6207L214.21 87.3329C213.153 86.2763 213.153 84.5614 214.21 83.5047Z" fill="#080D15"/>
<path d="M202.317 141.297C202.317 139.052 204.137 137.236 206.378 137.236H256.934C259.175 137.236 260.995 139.052 260.995 141.297V191.849C260.995 194.094 259.175 195.91 256.934 195.91H206.378C204.137 195.91 202.317 194.094 202.317 191.849V141.297Z" fill="#FFD701"/>
<path fill-rule="evenodd" clip-rule="evenodd" d="M214.21 164.715C215.266 163.658 216.981 163.658 218.038 164.715L226.498 173.174L248.798 150.871C249.855 149.814 251.569 149.814 252.626 150.871C253.683 151.927 253.683 153.642 252.626 154.702L226.498 180.831L214.21 168.543C213.153 167.486 213.153 165.771 214.21 164.715Z" fill="#080D15"/>
<path d="M202.317 222.504C202.317 220.26 204.137 218.443 206.378 218.443H256.934C259.175 218.443 260.995 220.26 260.995 222.504V273.06C260.995 275.302 259.175 277.118 256.934 277.118H206.378C204.137 277.118 202.317 275.302 202.317 273.06V222.504Z" fill="#FFD701"/>
<path fill-rule="evenodd" clip-rule="evenodd" d="M214.21 245.922C215.266 244.866 216.981 244.866 218.038 245.922L226.498 254.382L248.798 232.078C249.855 231.021 251.569 231.021 252.626 232.078C253.683 233.138 253.683 234.85 252.626 235.91L226.498 262.038L214.21 249.75C213.153 248.694 213.153 246.979 214.21 245.922Z" fill="#080D15"/>
<path d="M278.113 60.3262C278.113 58.0847 279.929 56.2651 282.171 56.2651H439.175C441.416 56.2651 443.236 58.0847 443.236 60.3262C443.236 62.5711 441.416 64.3873 439.175 64.3873H282.171C279.929 64.3873 278.113 62.5711 278.113 60.3262Z" fill="#080D15"/>
<path d="M278.113 141.533C278.113 139.291 279.929 137.475 282.171 137.475H439.175C441.416 137.475 443.236 139.291 443.236 141.533C443.236 143.778 441.416 145.594 439.175 145.594H282.171C279.929 145.594 278.113 143.778 278.113 141.533Z" fill="#080D15"/>
<path d="M278.113 222.74C278.113 220.499 279.929 218.683 282.171 218.683H439.175C441.416 218.683 443.236 220.499 443.236 222.74C443.236 224.985 441.416 226.801 439.175 226.801H282.171C279.929 226.801 278.113 224.985 278.113 222.74Z" fill="#080D15"/>
<path d="M278.113 82.66C278.113 80.0438 280.233 77.9204 282.849 77.9204H392.478C395.094 77.9204 397.217 80.0438 397.217 82.66C397.217 85.2762 395.094 87.3962 392.478 87.3962H282.849C280.233 87.3962 278.113 85.2762 278.113 82.66Z" fill="#080D15"/>
<path d="M278.113 163.868C278.113 161.251 280.233 159.128 282.849 159.128H392.478C395.094 159.128 397.217 161.251 397.217 163.868C397.217 166.484 395.094 168.604 392.478 168.604H282.849C280.233 168.604 278.113 166.484 278.113 163.868Z" fill="#080D15"/>
<path d="M278.113 245.074C278.113 242.458 280.233 240.338 282.849 240.338H392.478C395.094 240.338 397.217 242.458 397.217 245.074C397.217 247.69 395.094 249.81 392.478 249.81H282.849C280.233 249.81 278.113 247.69 278.113 245.074Z" fill="#080D15"/>
<mask id="mask1_1924_16313" style="mask-type:luminance" maskUnits="userSpaceOnUse" x="297" y="487" width="104" height="89">
<path d="M297.204 487.842H400.908V575.832H297.204V487.842Z" fill="white"/>
</mask>
<g mask="url(#mask1_1924_16313)">
<path d="M297.292 488.568H400.22V575.191H297.292V488.568Z" fill="#FFEC82"/>
</g>
<path d="M341.113 488.565H357.418V532.386L349.266 527.292L341.113 532.386V488.565Z" fill="#080D15"/>
<mask id="mask2_1924_16313" style="mask-type:luminance" maskUnits="userSpaceOnUse" x="400" y="487" width="31" height="89">
<path d="M400.044 487.842H430.291V575.832H400.044V487.842Z" fill="white"/>
</mask>
<g mask="url(#mask2_1924_16313)">
<path d="M429.771 488.568H400.22V575.191H429.771V488.568Z" fill="#FFD701"/>
</g>
<path d="M364.551 564.487C364.551 563.082 365.692 561.941 367.1 561.941H386.463C387.868 561.941 389.009 563.082 389.009 564.487C389.009 565.894 387.868 567.035 386.463 567.035H367.1C365.692 567.035 364.551 565.894 364.551 564.487Z" fill="#080D15"/>
<mask id="mask3_1924_16313" style="mask-type:luminance" maskUnits="userSpaceOnUse" x="411" y="487" width="104" height="89">
<path d="M411.279 487.842H514.983V575.832H411.279V487.842Z" fill="white"/>
</mask>
<g mask="url(#mask3_1924_16313)">
<path d="M411.427 488.568H514.355V575.191H411.427V488.568Z" fill="#FFEC82"/>
</g>
<path d="M455.251 488.565H471.556V532.386L463.404 527.292L455.251 532.386V488.565Z" fill="#080D15"/>
<mask id="mask4_1924_16313" style="mask-type:luminance" maskUnits="userSpaceOnUse" x="514" y="487" width="31" height="89">
<path d="M514.118 487.842H544.365V575.832H514.118V487.842Z" fill="white"/>
</mask>
<g mask="url(#mask4_1924_16313)">
<path d="M543.91 488.568H514.358V575.191H543.91V488.568Z" fill="#FFD701"/>
</g>
<path d="M478.686 564.487C478.686 563.082 479.827 561.941 481.235 561.941H500.598C502.006 561.941 503.147 563.082 503.147 564.487C503.147 565.894 502.006 567.035 500.598 567.035H481.235C479.827 567.035 478.686 565.894 478.686 564.487Z" fill="#080D15"/>
<mask id="mask5_1924_16313" style="mask-type:luminance" maskUnits="userSpaceOnUse" x="525" y="487" width="105" height="89">
<path d="M525.353 487.842H629.057V575.832H525.353V487.842Z" fill="white"/>
</mask>
<g mask="url(#mask5_1924_16313)">
<path d="M525.566 488.568H628.493V575.191H525.566V488.568Z" fill="#FFEC82"/>
</g>
<path d="M569.387 488.565H585.692V532.386L577.539 527.292L569.387 532.386V488.565Z" fill="#080D15"/>
<mask id="mask6_1924_16313" style="mask-type:luminance" maskUnits="userSpaceOnUse" x="628" y="487" width="31" height="89">
<path d="M628.193 487.842H658.44V575.832H628.193V487.842Z" fill="white"/>
</mask>
<g mask="url(#mask6_1924_16313)">
<path d="M658.045 488.568H628.493V575.191H658.045V488.568Z" fill="#FFD701"/>
</g>
<path d="M592.824 564.487C592.824 563.082 593.965 561.941 595.373 561.941H614.737C616.141 561.941 617.282 563.082 617.282 564.487C617.282 565.894 616.141 567.035 614.737 567.035H595.373C593.965 567.035 592.824 565.894 592.824 564.487Z" fill="#080D15"/>
<path d="M346.211 401.946H449.138V488.566H346.211V401.946Z" fill="#FFEC82"/>
<path d="M390.031 401.946H406.336V445.764L398.184 440.67L390.031 445.764V401.946Z" fill="#080D15"/>
<path d="M478.689 401.946H449.138V488.566H478.689V401.946Z" fill="#FFD701"/>
<path d="M413.469 477.867C413.469 476.459 414.61 475.318 416.018 475.318H435.378C436.786 475.318 437.927 476.459 437.927 477.867C437.927 479.274 436.786 480.415 435.378 480.415H416.018C414.61 480.415 413.469 479.274 413.469 477.867Z" fill="#080D15"/>
<path d="M412.531 315.323H515.459V401.946H412.531V315.323Z" fill="#FFEC82"/>
<path d="M456.352 315.323H472.657V359.141L464.505 354.047L456.352 359.141V315.323Z" fill="#080D15"/>
<path d="M545.01 315.323H515.458V401.946H545.01V315.323Z" fill="#FFD701"/>
<path d="M479.79 391.246C479.79 389.838 480.931 388.697 482.335 388.697H501.699C503.107 388.697 504.248 389.838 504.248 391.246C504.248 392.654 503.107 393.795 501.699 393.795H482.335C480.931 393.795 479.79 392.654 479.79 391.246Z" fill="#080D15"/>
<path d="M466.459 401.946H569.387V488.566H466.459V401.946Z" fill="#FFEC82"/>
<path d="M510.28 401.946H526.585V445.764L518.433 440.67L510.28 445.764V401.946Z" fill="#080D15"/>
<path d="M598.938 401.946H569.387V488.566H598.938V401.946Z" fill="#FFD701"/>
<path d="M533.718 477.867C533.718 476.459 534.859 475.318 536.267 475.318H555.63C557.035 475.318 558.176 476.459 558.176 477.867C558.176 479.274 557.035 480.415 555.63 480.415H536.267C534.859 480.415 533.718 479.274 533.718 477.867Z" fill="#080D15"/>
<path d="M122.468 557.457C126.064 554.01 126.384 525.914 126.341 525.279L151.868 523.588C151.912 524.226 150.643 547.91 159.815 551.104C152.786 560.289 129.159 558.693 122.468 557.457Z" fill="#BEBCFC"/>
<mask id="mask7_1924_16313" style="mask-type:luminance" maskUnits="userSpaceOnUse" x="121" y="540" width="71" height="36">
<path d="M121.479 540.726H191.479V576H121.479V540.726Z" fill="white"/>
</mask>
<g mask="url(#mask7_1924_16313)">
<path d="M148.58 541.301C143.928 543.269 145.728 545.618 141.673 549.696C133.987 557.427 129.126 543.164 123.89 547.772C120.619 550.648 121.402 565.481 122.722 572.881C135.364 574.657 159.619 576.226 176.099 575.98C181.052 575.906 186.912 576.044 190.014 572.196C194.639 566.467 180.096 558.092 170.432 553.94C168.784 552.772 167.198 551.576 165.732 550.452L165.317 550.132C164.335 549.379 163.383 548.613 162.455 547.86C161.037 546.715 159.683 545.601 158.38 544.612C154.731 541.844 151.507 540.062 148.58 541.301Z" fill="#FFEC82"/>
</g>
<path fill-rule="evenodd" clip-rule="evenodd" d="M152.962 542.081C151.44 541.484 150.093 541.392 148.844 541.919C147.74 542.388 147.065 542.858 146.592 543.34C146.119 543.82 145.822 544.35 145.515 544.994C145.431 545.167 145.35 545.349 145.265 545.535C144.702 546.77 143.999 548.313 142.153 550.169C140.121 552.212 138.183 552.884 136.313 552.678C134.507 552.479 132.886 551.466 131.469 550.453C131.117 550.203 130.797 549.967 130.486 549.734C130.125 549.467 129.774 549.207 129.399 548.944C128.738 548.478 128.12 548.09 127.526 547.837C126.938 547.58 126.408 547.469 125.909 547.52C125.419 547.57 124.899 547.783 124.336 548.279C124.055 548.525 123.627 548.498 123.38 548.218C123.13 547.938 123.161 547.509 123.441 547.263C124.184 546.608 124.963 546.257 125.77 546.173C126.57 546.092 127.34 546.277 128.062 546.591C128.785 546.905 129.49 547.354 130.179 547.837C130.537 548.09 130.932 548.38 131.323 548.671C131.641 548.907 131.958 549.14 132.255 549.353C133.666 550.359 135.033 551.175 136.461 551.334C137.829 551.483 139.381 551.037 141.194 549.214C142.862 547.536 143.473 546.196 144.03 544.981C144.118 544.788 144.202 544.599 144.29 544.414C144.624 543.718 144.999 543.033 145.627 542.392C146.251 541.754 147.095 541.19 148.317 540.673C149.991 539.964 151.72 540.143 153.455 540.822C155.173 541.494 156.952 542.679 158.789 544.073C159.893 544.91 161.037 545.838 162.215 546.794C162.438 546.973 162.657 547.152 162.88 547.334C163.805 548.083 164.754 548.843 165.729 549.592L166.145 549.913C167.589 551.02 169.149 552.195 170.763 553.343C175.61 555.429 181.683 558.575 185.998 561.941C188.155 563.622 189.934 565.408 190.862 567.194C191.335 568.095 191.605 569.023 191.574 569.955C191.544 570.9 191.203 571.795 190.541 572.618C190.308 572.909 189.88 572.953 189.589 572.72C189.299 572.483 189.252 572.058 189.488 571.768C189.981 571.157 190.2 570.539 190.221 569.911C190.241 569.273 190.059 568.574 189.664 567.821C188.867 566.292 187.274 564.652 185.164 563.008C181.022 559.777 175.141 556.712 170.368 554.646C169.112 554.95 167.282 555.51 165.638 556.263C164.767 556.661 163.967 557.103 163.336 557.576C162.698 558.059 162.289 558.531 162.111 558.967C161.972 559.314 161.577 559.483 161.229 559.342C160.882 559.2 160.716 558.808 160.858 558.46C161.169 557.694 161.797 557.043 162.522 556.496C163.258 555.942 164.153 555.453 165.074 555.031C166.347 554.45 167.711 553.981 168.865 553.647C167.772 552.846 166.708 552.046 165.702 551.28C165.321 551.503 164.852 551.719 164.372 551.932C164.21 552.003 164.041 552.077 163.873 552.154C163.279 552.414 162.644 552.691 162.006 553.009C161.186 553.417 160.399 553.869 159.751 554.389C159.103 554.906 158.627 555.466 158.38 556.07C158.242 556.415 157.847 556.583 157.499 556.442C157.155 556.303 156.986 555.908 157.128 555.561C157.492 554.666 158.154 553.933 158.907 553.333C159.66 552.728 160.544 552.225 161.402 551.797C162.07 551.466 162.745 551.169 163.343 550.905C163.511 550.835 163.67 550.764 163.822 550.693C164.085 550.578 164.322 550.47 164.524 550.372C163.771 549.788 163.035 549.201 162.32 548.62C162.235 548.647 162.144 548.671 162.056 548.698C161.932 548.735 161.797 548.772 161.651 548.812L161.604 548.826C161.439 548.873 161.263 548.924 161.074 548.978C160.328 549.194 159.417 549.474 158.505 549.832C157.587 550.186 156.689 550.615 155.956 551.118C155.221 551.628 154.707 552.175 154.474 552.752C154.333 553.096 153.938 553.265 153.593 553.123C153.246 552.985 153.08 552.59 153.219 552.242C153.593 551.321 154.346 550.585 155.19 550.004C156.041 549.417 157.047 548.947 158.012 548.569C158.981 548.191 159.937 547.898 160.699 547.678C160.818 547.644 160.929 547.611 161.037 547.58C160.085 546.807 159.163 546.065 158.272 545.379C158.235 545.393 158.195 545.41 158.154 545.423C157.432 545.7 156.149 546.193 154.785 546.865C153.907 547.297 153.026 547.793 152.287 548.326C151.538 548.866 150.991 549.407 150.714 549.92C150.535 550.251 150.123 550.372 149.796 550.193C149.468 550.014 149.343 549.606 149.522 549.278C149.944 548.498 150.683 547.813 151.494 547.229C152.317 546.635 153.269 546.102 154.188 545.649C155.217 545.143 156.24 544.721 156.989 544.424C155.551 543.388 154.218 542.571 152.962 542.081ZM124.906 563.382C124.953 563.011 125.291 562.748 125.662 562.795C133.001 563.727 144.074 564.854 155.167 565.469C166.276 566.083 177.349 566.181 184.711 565.067C185.083 565.013 185.424 565.266 185.481 565.637C185.538 566.005 185.282 566.35 184.914 566.407C177.399 567.541 166.205 567.433 155.092 566.819C143.962 566.204 132.859 565.07 125.493 564.138C125.122 564.091 124.859 563.754 124.906 563.382Z" fill="#080D15"/>
<path d="M46.6722 557.457C50.2641 554.01 50.5881 525.914 50.5442 525.279L76.0719 523.588C76.1158 524.223 74.8465 547.91 84.0185 551.104C76.9901 560.289 53.363 558.693 46.6722 557.457Z" fill="#BEBCFC"/>
<mask id="mask8_1924_16313" style="mask-type:luminance" maskUnits="userSpaceOnUse" x="45" y="540" width="71" height="36">
<path d="M45.4298 540.726H115.43V576H45.4298V540.726Z" fill="white"/>
</mask>
<g mask="url(#mask8_1924_16313)">
<path d="M72.7838 541.301C68.132 543.269 69.9313 545.618 65.877 549.696C58.1869 557.427 53.3292 543.164 48.09 547.772C44.8222 550.648 45.6054 565.481 46.9253 572.881C59.5676 574.657 83.8226 576.226 100.303 575.98C105.255 575.906 111.116 576.044 114.218 572.196C118.843 566.467 104.297 558.092 94.6352 553.94C92.9879 552.772 91.4012 551.576 89.9361 550.452L89.5209 550.132C88.5386 549.379 87.5866 548.613 86.6583 547.86C85.2404 546.715 83.8834 545.601 82.5837 544.612C78.9345 541.844 75.7106 540.062 72.7838 541.301Z" fill="#FFEC82"/>
</g>
<path fill-rule="evenodd" clip-rule="evenodd" d="M77.1652 542.081C75.6428 541.484 74.2992 541.392 73.0468 541.919C71.9463 542.388 71.2678 542.858 70.7951 543.34C70.3259 543.82 70.0255 544.35 69.7183 544.994C69.6373 545.167 69.5529 545.349 69.4685 545.535C68.9047 546.77 68.2025 548.313 66.356 550.169C64.3272 552.212 62.3861 552.884 60.5159 552.678C58.7099 552.479 57.0929 551.466 55.6717 550.453C55.3206 550.203 55.0033 549.967 54.6893 549.734C54.3281 549.467 53.9804 549.207 53.6057 548.944C52.9407 548.478 52.3229 548.09 51.7287 547.837C51.1414 547.58 50.6114 547.469 50.1117 547.52C49.6256 547.57 49.1024 547.783 48.5386 548.279C48.2584 548.525 47.8297 548.498 47.5833 548.218C47.3369 547.938 47.3639 547.509 47.6441 547.263C48.3901 546.608 49.1665 546.257 49.9767 546.173C50.7768 546.092 51.5431 546.277 52.2689 546.591C52.9879 546.905 53.6968 547.354 54.3821 547.837C54.7433 548.09 55.1349 548.38 55.5265 548.671C55.8472 548.907 56.1645 549.14 56.4582 549.353C57.8693 550.359 59.2365 551.175 60.6644 551.334C62.035 551.483 63.5845 551.037 65.3973 549.214C67.0649 547.536 67.6793 546.196 68.2329 544.981C68.3207 544.788 68.4085 544.599 68.4962 544.414C68.8271 543.718 69.2018 543.033 69.8297 542.392C70.4576 541.754 71.2981 541.19 72.5202 540.673C74.1979 539.964 75.9263 540.143 77.6581 540.822C79.3764 541.494 81.1554 542.679 82.9918 544.073C84.0991 544.91 85.2435 545.838 86.4183 546.794C86.6411 546.973 86.8605 547.152 87.0833 547.334C88.0116 548.083 88.9602 548.843 89.9324 549.592L90.3477 549.913C91.7925 551.02 93.3521 552.195 94.9657 553.343C99.8134 555.429 105.89 558.575 110.201 561.941C112.358 563.622 114.137 565.408 115.068 567.194C115.538 568.095 115.808 569.023 115.777 569.955C115.747 570.9 115.409 571.795 114.744 572.618C114.511 572.909 114.086 572.953 113.792 572.72C113.502 572.483 113.458 572.058 113.691 571.768C114.184 571.157 114.403 570.539 114.424 569.911C114.447 569.273 114.262 568.574 113.867 567.821C113.07 566.292 111.477 564.652 109.367 563.008C105.228 559.777 99.3441 556.712 94.5708 554.646C93.315 554.95 91.4853 555.51 89.8413 556.263C88.9703 556.661 88.1703 557.103 87.5424 557.576C86.901 558.059 86.4925 558.531 86.3136 558.967C86.1752 559.314 85.7802 559.483 85.4325 559.342C85.0882 559.2 84.9194 558.808 85.0612 558.46C85.3718 557.694 85.9997 557.043 86.7288 556.496C87.4647 555.942 88.356 555.453 89.2775 555.031C90.5502 554.45 91.914 553.981 93.0719 553.647C91.9748 552.846 90.9148 552.046 89.9088 551.28C89.5273 551.503 89.0547 551.719 88.5754 551.932C88.4133 552.003 88.2479 552.077 88.0758 552.154C87.4816 552.414 86.847 552.691 86.209 553.009C85.3886 553.417 84.6021 553.869 83.9539 554.389C83.3058 554.906 82.8332 555.466 82.5867 556.07C82.445 556.415 82.05 556.583 81.7057 556.442C81.358 556.303 81.1926 555.908 81.331 555.561C81.6955 554.666 82.3572 553.933 83.11 553.333C83.8662 552.728 84.7472 552.225 85.6047 551.797C86.2731 551.466 86.9516 551.169 87.5491 550.905C87.7146 550.835 87.8732 550.764 88.0251 550.693C88.2918 550.578 88.5247 550.47 88.7273 550.372C87.9745 549.788 87.2419 549.201 86.5229 548.62C86.4385 548.647 86.3507 548.671 86.2596 548.698C86.1347 548.735 85.9997 548.772 85.8545 548.812L85.8072 548.826C85.6418 548.873 85.4663 548.924 85.2806 548.978C84.5312 549.194 83.6197 549.474 82.7083 549.832C81.7901 550.186 80.8921 550.615 80.1629 551.118C79.4236 551.628 78.9105 552.175 78.6776 552.752C78.5392 553.096 78.1442 553.265 77.7965 553.123C77.4488 552.985 77.2834 552.59 77.4252 552.242C77.7999 551.321 78.5493 550.585 79.3933 550.004C80.2473 549.417 81.2499 548.947 82.2154 548.569C83.1843 548.191 84.1396 547.898 84.9025 547.678C85.0207 547.644 85.1321 547.611 85.2401 547.58C84.2881 546.807 83.3699 546.065 82.4753 545.379C82.4382 545.393 82.4011 545.41 82.3572 545.423C81.6348 545.7 80.352 546.193 78.9882 546.865C78.1105 547.297 77.2294 547.793 76.4901 548.326C75.7407 548.866 75.1938 549.407 74.917 549.92C74.7381 550.251 74.3296 550.372 73.9988 550.193C73.6713 550.014 73.5498 549.606 73.7253 549.278C74.1473 548.498 74.8866 547.813 75.6968 547.229C76.5205 546.635 77.4758 546.102 78.3907 545.649C79.4203 545.143 80.4431 544.721 81.1926 544.424C79.7578 543.388 78.421 542.571 77.1652 542.081ZM49.1125 563.382C49.1564 563.011 49.4974 562.748 49.8687 562.795C57.2043 563.727 68.2802 564.854 79.373 565.469C90.4793 566.083 101.552 566.181 108.914 565.067C109.286 565.013 109.63 565.266 109.684 565.637C109.742 566.005 109.488 566.35 109.117 566.407C101.606 567.541 90.4118 567.433 79.2954 566.819C68.1688 566.204 57.0625 565.07 49.6965 564.138C49.3252 564.091 49.0653 563.754 49.1125 563.382Z" fill="#080D15"/>
<path d="M59.3379 345.267C56.6305 327.403 64.9788 306.243 69.4889 297.898C85.0546 304.437 124.44 313.596 152.05 297.898C157.691 334.441 163.71 412.101 163.71 424.447C163.71 454.9 158.974 477.23 152.206 532.046C141.379 536.786 132.13 535.658 124.46 532.046C127.167 467.079 123.106 456.928 129.196 428.508C126.934 417.641 116.989 377.003 110.235 349.075L95.3608 427.154L77.0911 534.754C64.6379 538.545 54.3046 535.206 49.3422 532.046C52.7281 462.343 46.6348 465.05 56.0499 424.447C58.7876 388.511 60.8739 355.398 59.3379 345.267Z" fill="#080D15"/>
<path fill-rule="evenodd" clip-rule="evenodd" d="M124.791 329.235C125.051 329.505 125.044 329.934 124.774 330.191L112.227 342.222L110.9 349.2C110.829 349.568 110.475 349.807 110.107 349.74C109.739 349.669 109.499 349.315 109.57 348.947L110.978 341.547L123.836 329.215C124.106 328.955 124.535 328.965 124.791 329.235Z" fill="#F7F9FC"/>
<path d="M117.648 152.154C128.15 149.882 131.34 132.676 131.624 124.358C132.461 128.048 139.037 146.361 152.594 148.748C152.324 150.827 152.064 154.676 152.472 157.755C152.766 159.986 152.989 162.498 151.615 164.28C142.943 175.525 125.713 161.353 117.648 152.154Z" fill="#BEBCFC"/>
<path d="M138.243 111.951C154.653 112.738 161.803 101.919 163.487 95.9907C166.958 97.5875 173.807 102.685 173.433 110.284C172.963 119.78 172.602 148.18 156.439 148.984C155.099 149.048 153.816 148.964 152.594 148.748C139.037 146.361 132.461 128.047 131.623 124.357C124.146 119.29 124.747 110.591 128.254 108.042C131.063 106.003 136.083 109.801 138.243 111.951Z" fill="#BEBCFC"/>
<path fill-rule="evenodd" clip-rule="evenodd" d="M155.689 137.283C155.359 137.451 155.227 137.86 155.396 138.194C156.284 139.926 157.955 140.402 159.362 140.355C160.068 140.331 160.743 140.176 161.29 139.963C161.563 139.858 161.816 139.734 162.029 139.595C162.235 139.463 162.444 139.295 162.59 139.082C162.802 138.775 162.725 138.353 162.417 138.14C162.107 137.927 161.688 138.008 161.475 138.316C161.475 138.316 161.465 138.329 161.435 138.356C161.405 138.387 161.357 138.42 161.297 138.457C161.175 138.535 161.01 138.623 160.8 138.701C160.388 138.863 159.862 138.984 159.315 139.001C158.221 139.041 157.168 138.68 156.601 137.576C156.432 137.242 156.024 137.111 155.689 137.283Z" fill="#080D15"/>
<path fill-rule="evenodd" clip-rule="evenodd" d="M132.532 114.748C131.755 113.735 130.776 112.979 130.135 112.601L130.817 111.433C131.59 111.885 132.711 112.753 133.605 113.924C134.503 115.096 135.222 116.632 135.064 118.391L133.717 118.266C133.835 116.966 133.308 115.761 132.532 114.748ZM137.909 136.677C141.316 141.957 146.214 146.936 152.712 148.084L152.479 149.417C145.424 148.172 140.252 142.804 136.772 137.41C133.285 132.002 131.401 126.428 130.965 124.508L132.285 124.207C132.687 125.979 134.51 131.408 137.909 136.677Z" fill="#080D15"/>
<path d="M138.244 111.952C154.653 112.739 161.803 101.919 163.488 95.9916C166.961 97.5883 173.808 102.686 173.433 110.285C172.964 119.781 172.606 148.181 156.439 148.985C155.099 149.049 153.82 148.964 152.594 148.748C152.314 150.909 152.044 154.98 152.523 158.116C157.621 166.61 162.857 177.365 165.064 182.175C166.07 184.36 166.59 185.966 167.772 190.973L179.823 178.594C184.971 171.437 182.105 163.98 178.179 157.083C174.132 149.974 179.567 146.696 182.956 139.988C186.349 133.284 182.473 126.718 179.911 121.658C177.349 116.594 179.236 111.203 180.269 98.1724C181.089 87.7479 165.8 80.6183 158.053 78.3565C149.198 76.0036 129.733 75.5276 122.712 92.42C117.152 106.284 122.04 108.391 110.589 110.16C96.5326 112.33 108.112 125.807 98.2373 130.971C92.4411 134.364 84.7106 148.07 95.3612 160.52L117.648 152.155C128.15 149.883 131.34 132.676 131.624 124.358C124.146 119.291 124.751 110.592 128.255 108.043C131.063 106.004 136.083 109.802 138.244 111.952Z" fill="#080D15"/>
<path fill-rule="evenodd" clip-rule="evenodd" d="M150.335 113.244C149.022 114.685 147.982 116.843 147.581 119.381C147.179 121.916 147.5 124.29 148.303 126.072C149.11 127.854 150.366 128.968 151.811 129.195C153.255 129.424 154.791 128.756 156.111 127.308C157.424 125.863 158.461 123.706 158.863 121.167C159.264 118.632 158.947 116.259 158.14 114.48C157.333 112.694 156.081 111.583 154.636 111.354C153.191 111.124 151.655 111.796 150.335 113.244ZM149.336 112.329C150.848 110.672 152.806 109.693 154.849 110.017C156.888 110.341 158.447 111.873 159.376 113.919C160.196 115.735 160.554 118.017 160.321 120.431C160.733 120.377 161.192 120.35 161.648 120.377C162.113 120.404 162.63 120.495 163.103 120.708C163.558 118.655 164.446 116.86 165.587 115.57C166.877 114.112 168.565 113.224 170.333 113.504C172.106 113.784 173.436 115.148 174.209 116.934C174.989 118.73 175.259 121.039 174.877 123.446C174.496 125.853 173.527 127.966 172.231 129.431C170.941 130.889 169.257 131.777 167.484 131.497C165.746 131.223 164.433 129.9 163.653 128.165C162.903 126.497 162.603 124.374 162.863 122.139C162.586 121.906 162.147 121.765 161.567 121.727C161.06 121.697 160.54 121.751 160.122 121.832C159.636 124.404 158.545 126.646 157.111 128.219C155.598 129.877 153.637 130.856 151.598 130.535C149.559 130.211 147.996 128.675 147.071 126.629C146.143 124.577 145.808 121.93 146.244 119.169C146.683 116.411 147.817 113.997 149.336 112.329ZM166.603 116.468C165.503 117.71 164.625 119.574 164.277 121.768C164.267 121.846 164.254 121.927 164.244 122.008C163.946 124.148 164.223 126.133 164.888 127.608C165.553 129.093 166.563 129.981 167.697 130.16C168.851 130.342 170.111 129.785 171.218 128.533C172.318 127.291 173.193 125.427 173.54 123.233C173.888 121.042 173.632 119 172.97 117.474C172.305 115.941 171.279 115.023 170.124 114.841C168.966 114.658 167.707 115.215 166.603 116.468Z" fill="#080D15"/>
<path d="M156.864 122.48C156.665 123.736 155.828 124.644 154.991 124.513C154.154 124.378 153.637 123.253 153.836 122.001C154.035 120.745 154.876 119.837 155.71 119.969C156.547 120.1 157.064 121.225 156.864 122.48Z" fill="#080D15"/>
<path d="M170.411 125.144C170.212 126.397 169.375 127.308 168.538 127.173C167.704 127.042 167.184 125.917 167.383 124.665C167.583 123.409 168.423 122.501 169.257 122.633C170.094 122.764 170.611 123.889 170.411 125.144Z" fill="#080D15"/>
<path fill-rule="evenodd" clip-rule="evenodd" d="M147.952 115.467L138.057 112.604L138.432 111.304L148.327 114.163L147.952 115.467Z" fill="#080D15"/>
<path d="M119.045 151.723C144.087 176.086 150.7 164.582 152.729 159.167C168.97 186.237 175.411 202.718 159.497 218.044C150.835 258.104 157.691 296.092 159.497 304.663C147.048 332.274 87.3131 313.234 64.7528 299.927C68.1387 278.271 84.1466 270.149 79.4104 215.336C76.1663 201.921 75.0219 189.829 78.2897 176.761C81.6722 163.228 96.7147 156.459 119.045 151.723Z" fill="#FFD701"/>
<path fill-rule="evenodd" clip-rule="evenodd" d="M152.381 158.584C152.702 158.392 153.117 158.496 153.309 158.817C161.425 172.341 167.164 183.329 168.838 192.889C169.679 197.689 169.5 202.149 168.078 206.399C166.674 210.592 164.071 214.538 160.115 218.383C151.551 258.234 158.366 295.999 160.159 304.523C160.236 304.887 160.004 305.249 159.636 305.323C159.271 305.401 158.913 305.168 158.836 304.803C157.023 296.195 150.143 258.099 158.836 217.897L158.879 217.698L159.028 217.552C162.944 213.782 165.459 209.967 166.796 205.967C168.132 201.97 168.315 197.743 167.505 193.122C165.877 183.845 160.274 173.056 152.148 159.513C151.956 159.192 152.06 158.777 152.381 158.584Z" fill="#080D15"/>
<path d="M158.819 193L162.205 189.618C165.327 194.104 171.252 202.581 173.142 205.133L171.002 207.212L158.819 193Z" fill="#080D15"/>
<path d="M191.979 243.083C188.192 245.247 166.094 247.593 155.521 248.498C155.683 245.395 155.919 242.232 156.237 239.022L189.95 238.347C188.144 237.219 184.671 234.556 185.214 232.932C185.754 231.308 189.95 234.059 191.979 235.639C189.724 232.706 185.754 226.703 187.918 226.163C190.085 225.623 193.785 230.451 195.365 232.932C193.785 229.998 191.034 224.135 192.658 224.135C194.477 224.135 197.026 229.029 197.857 231.018C197.57 230.147 197.131 228.385 196.716 225.488C196.04 220.749 200.777 225.488 202.809 230.224C204.838 234.961 196.716 240.375 191.979 243.083Z" fill="#BEBCFC"/>
<path d="M158.819 228.195C114.833 243.082 106.035 252.555 97.2381 251.201C92.3702 250.455 88.8898 239.494 87.4551 232.253L105.36 226.163C127.691 216.691 134.459 219.395 160.851 214.658C161.979 212.403 164.912 207.755 167.616 207.215C170.324 206.675 176.414 203.38 178.446 204.507C189.951 209.922 175.603 228.195 158.819 228.195Z" fill="#BEBCFC"/>
<path d="M175.738 251.878L149.347 239.02L215.667 177.435L231.908 207.891L175.738 251.878Z" fill="#080D15"/>
<path d="M202.809 230.224C204.838 234.961 196.716 240.375 191.979 243.083L189.951 238.347C188.145 237.219 184.671 234.556 185.214 232.932C185.755 231.308 189.951 234.059 191.979 235.639C189.724 232.706 185.755 226.703 187.918 226.163C190.086 225.623 193.786 230.451 195.365 232.932C193.786 229.998 191.034 224.135 192.658 224.135C194.478 224.135 197.026 229.029 197.857 231.018C197.57 230.147 197.131 228.385 196.716 225.488C196.041 220.749 200.777 225.488 202.809 230.224Z" fill="#BEBCFC"/>
<path fill-rule="evenodd" clip-rule="evenodd" d="M100.266 185.659C100.586 185.463 101.002 185.561 101.197 185.882C107.49 196.111 112.25 209.04 114.971 221.281L115.065 221.706L114.714 221.966C111.385 224.464 105.289 227.256 99.3441 229.47C93.4027 231.681 87.4681 233.369 84.4299 233.606L83.8931 233.646L83.7311 233.13C81.7461 226.672 79.9671 220.626 78.5898 214.813C78.502 214.451 78.7282 214.087 79.0894 213.999C79.454 213.915 79.8186 214.137 79.9063 214.502C81.2364 220.109 82.9445 225.949 84.862 232.201C87.8462 231.84 93.2879 230.28 98.8715 228.201C104.59 226.074 110.312 223.451 113.553 221.142C110.842 209.145 106.167 196.543 100.046 186.591C99.8504 186.27 99.9483 185.855 100.266 185.659Z" fill="#080D15"/>
</svg>
